<?xml version="1.0" encoding="UTF-8" standalone="no"?>
<!-- Created with Inkscape (http://www.inkscape.org/) -->

<svg
   width="210mm"
   height="297mm"
   viewBox="0 0 210 297"
   version="1.1"
   id="svg5"
   inkscape:version="1.1 (c68e22c387, 2021-05-23)"
   sodipodi:docname="25.11.2021_eigene_bildmarke.svg"
   xmlns:inkscape="http://www.inkscape.org/namespaces/inkscape"
   xmlns:sodipodi="http://sodipodi.sourceforge.net/DTD/sodipodi-0.dtd"
   xmlns:xlink="http://www.w3.org/1999/xlink"
   xmlns="http://www.w3.org/2000/svg"
   xmlns:svg="http://www.w3.org/2000/svg"
   xmlns:rdf="http://www.w3.org/1999/02/22-rdf-syntax-ns#"
   xmlns:cc="http://creativecommons.org/ns#"
   xmlns:dc="http://purl.org/dc/elements/1.1/">
  <title
     id="title11">Bildmarke</title>
  <sodipodi:namedview
     id="namedview7"
     pagecolor="#ffffff"
     bordercolor="#666666"
     borderopacity="1.0"
     inkscape:pageshadow="2"
     inkscape:pageopacity="0.0"
     inkscape:pagecheckerboard="0"
     inkscape:document-units="mm"
     showgrid="false"
     inkscape:zoom="1.0889444"
     inkscape:cx="373.2973"
     inkscape:cy="470.63927"
     inkscape:window-width="1920"
     inkscape:window-height="1051"
     inkscape:window-x="-9"
     inkscape:window-y="-9"
     inkscape:window-maximized="1"
     inkscape:current-layer="text2127"
     showguides="true"
     inkscape:guide-bbox="true"
     inkscape:lockguides="true">
    <sodipodi:guide
       position="103.17032,208.43331"
       orientation="0,-1"
       id="guide16912"
       inkscape:locked="true" />
    <sodipodi:guide
       position="183.83387,244.68467"
       orientation="0,-1"
       id="guide23980"
       inkscape:locked="true" />
    <sodipodi:guide
       position="177.90652,208.43332"
       orientation="1,0"
       id="guide23982"
       inkscape:locked="true" />
    <sodipodi:guide
       position="198.78111,237.55466"
       orientation="1,0"
       id="guide23984"
       inkscape:locked="true" />
    <sodipodi:guide
       position="191.30749,221.57658"
       orientation="0,-1"
       id="guide23986"
       inkscape:locked="true" />
  </sodipodi:namedview>
  <defs
     id="defs2">
    <linearGradient
       inkscape:collect="always"
       id="linearGradient33534">
      <stop
         style="stop-color:#000000;stop-opacity:1;"
         offset="0"
         id="stop33530" />
      <stop
         style="stop-color:#000000;stop-opacity:0;"
         offset="1"
         id="stop33532" />
    </linearGradient>
    <linearGradient
       inkscape:collect="always"
       id="linearGradient33402">
      <stop
         style="stop-color:#000000;stop-opacity:1;"
         offset="0"
         id="stop33398" />
      <stop
         style="stop-color:#000000;stop-opacity:0;"
         offset="1"
         id="stop33400" />
    </linearGradient>
    <linearGradient
       id="linearGradient16506"
       inkscape:swatch="solid">
      <stop
         style="stop-color:#000000;stop-opacity:1;"
         offset="0"
         id="stop16504" />
    </linearGradient>
    <filter
       inkscape:collect="always"
       style="color-interpolation-filters:sRGB"
       id="filter33058"
       x="-0.068660313"
       y="-0.065522359"
       width="1.1373206"
       height="1.1310447">
      <feGaussianBlur
         inkscape:collect="always"
         stdDeviation="1.1230196"
         id="feGaussianBlur33060" />
    </filter>
    <filter
       inkscape:collect="always"
       style="color-interpolation-filters:sRGB"
       id="filter33235"
       x="-0.18169504"
       y="-0.079258358"
       width="1.3633901"
       height="1.1585167">
      <feGaussianBlur
         inkscape:collect="always"
         stdDeviation="0.50212933"
         id="feGaussianBlur33237" />
    </filter>
    <filter
       inkscape:collect="always"
       style="color-interpolation-filters:sRGB"
       id="filter33239"
       x="-0.34553655"
       y="-0.2775821"
       width="1.6963864"
       height="1.5479172">
      <feGaussianBlur
         inkscape:collect="always"
         stdDeviation="0.09501715"
         id="feGaussianBlur33241" />
    </filter>
    <radialGradient
       inkscape:collect="always"
       xlink:href="#linearGradient33402"
       id="radialGradient33408"
       cx="193.17729"
       cy="54.715691"
       fx="193.17729"
       fy="54.715691"
       r="82.068153"
       gradientTransform="matrix(1,0,0,0.16262015,0,45.817815)"
       gradientUnits="userSpaceOnUse" />
    <filter
       inkscape:collect="always"
       style="color-interpolation-filters:sRGB"
       id="filter33410"
       x="-0.014757665"
       y="-0.10291893"
       width="1.0295153"
       height="1.1985719">
      <feGaussianBlur
         inkscape:collect="always"
         stdDeviation="0.66224624"
         id="feGaussianBlur33412" />
    </filter>
    <linearGradient
       inkscape:collect="always"
       xlink:href="#linearGradient33534"
       id="linearGradient33536"
       x1="20.122268"
       y1="65.53554"
       x2="75.083129"
       y2="65.53554"
       gradientUnits="userSpaceOnUse" />
  </defs>
  <g
     inkscape:label="Ebene 1"
     inkscape:groupmode="layer"
     id="layer1">
    <g
       aria-label="M"
       transform="scale(1.0412139,0.96041746)"
       id="text2127"
       style="font-size:72.5662px;line-height:1.25;font-family:Arial;-inkscape-font-specification:'Arial, Normal';font-variant-ligatures:none;opacity:1;fill:#ff0000;stroke:#000000;stroke-width:1.41654">
      <g
         id="g23819"
         transform="matrix(0.78794044,0,0,0.90523239,-7.8668515,8.8301416)">
        <g
           aria-label="M"
           transform="scale(1.1441891,0.87398138)"
           id="text828"
           style="font-size:43.7907px;stroke-width:2.58464" />
      </g>
      <g
         id="g156">
        <path
           d="M 22.817515,91.507719 V 39.563359 H 33.163867 L 45.45902,76.342517 q 1.70077,5.137744 2.48029,7.688899 0.885818,-2.834617 2.763751,-8.326688 L 63.139944,39.563359 h 9.247939 v 51.94436 H 65.761965 V 48.031778 L 50.667629,91.507719 H 44.466904 L 29.443432,47.287691 v 44.220028 z"
           id="path10710"
           style="font-size:72.5662px;line-height:1.25;font-family:Arial;-inkscape-font-specification:'Arial, Normal';font-variant-ligatures:none;opacity:1;fill:#ff0000;stroke:url(#linearGradient33536);stroke-width:1.41654;mix-blend-mode:normal;filter:url(#filter33058);stroke-opacity:1;fill-opacity:1"
           transform="matrix(0.78794045,0,0,0.90523239,-7.8668515,8.8301415)" />
        <g
           aria-label="etamorphosis"
           transform="matrix(0.53988588,0,0,1.3211481,-7.8668515,8.8301415)"
           id="text11978"
           style="font-size:27.4166px;line-height:1.25;font-family:Arial;-inkscape-font-specification:'Arial, Normal';font-variant-ligatures:none;opacity:1;fill:#ff0000;stroke:url(#radialGradient33408);stroke-width:1.618;stroke-linecap:square;filter:url(#filter33410)">
          <path
             d="m 122.45371,57.225754 2.48999,0.307901 q -0.58903,2.182083 -2.18209,3.386914 -1.59305,1.204831 -4.06965,1.204831 -3.11917,0 -4.95319,-1.914343 -1.82064,-1.92773 -1.82064,-5.394965 0,-3.587719 1.84741,-5.568997 1.84741,-1.981278 4.79255,-1.981278 2.85144,0 4.65868,1.941117 1.80725,1.941116 1.80725,5.4619 0,0.214193 -0.0134,0.642577 h -10.60251 q 0.13387,2.342727 1.32531,3.587719 1.19145,1.244992 2.97192,1.244992 1.32531,0 2.2624,-0.696125 0.93709,-0.696124 1.48596,-2.222243 z m -7.91172,-3.895621 h 7.9385 q -0.16065,-1.793859 -0.91032,-2.690789 -1.15128,-1.392249 -2.9853,-1.392249 -1.65999,0 -2.79789,1.111122 -1.12451,1.111122 -1.24499,2.971916 z"
             id="path79" />
          <path
             d="m 133.23026,59.648803 0.34806,2.128534 q -1.01741,0.214193 -1.82064,0.214193 -1.31192,0 -2.03482,-0.414998 -0.7229,-0.414997 -1.01741,-1.084348 -0.29452,-0.682737 -0.29452,-2.851433 v -8.179464 h -1.76708 v -1.874182 h 1.76708 v -3.520784 l 2.39628,-1.445797 v 4.966581 h 2.42305 v 1.874182 h -2.42305 v 8.313334 q 0,1.0308 0.12048,1.325314 0.13387,0.294514 0.415,0.468546 0.29451,0.174031 0.82999,0.174031 0.40161,0 1.05758,-0.09371 z"
             id="path81" />
          <path
             d="m 144.86357,60.050413 q -1.3387,1.137896 -2.58369,1.606441 -1.23161,0.468546 -2.65063,0.468546 -2.34273,0 -3.60111,-1.137896 -1.25838,-1.151283 -1.25838,-2.931756 0,-1.044187 0.46855,-1.900955 0.48193,-0.870156 1.24499,-1.392249 0.77645,-0.522094 1.74031,-0.789834 0.70951,-0.187418 2.14192,-0.361449 2.91837,-0.348063 4.29723,-0.829995 0.0134,-0.49532 0.0134,-0.62919 0,-1.472571 -0.68274,-2.074986 -0.9237,-0.816608 -2.74433,-0.816608 -1.70015,0 -2.51676,0.602415 -0.80322,0.589029 -1.19145,2.101761 l -2.35611,-0.321288 q 0.32129,-1.512732 1.05757,-2.436436 0.73629,-0.937091 2.12854,-1.43241 1.39225,-0.508707 3.22627,-0.508707 1.82063,0 2.95853,0.428385 1.13789,0.428384 1.67337,1.084347 0.53548,0.642577 0.74968,1.633216 0.12048,0.615802 0.12048,2.222244 v 3.212882 q 0,3.36014 0.14726,4.25707 0.16064,0.883543 0.6158,1.70015 h -2.51676 q -0.37484,-0.749672 -0.48193,-1.753698 z m -0.20081,-5.381579 q -1.31192,0.535481 -3.93578,0.910317 -1.48596,0.214192 -2.10176,0.481933 -0.6158,0.26774 -0.95048,0.789833 -0.33467,0.508707 -0.33467,1.137896 0,0.963865 0.7229,1.606442 0.73628,0.642576 2.14192,0.642576 1.39225,0 2.4766,-0.602415 1.08434,-0.615803 1.59305,-1.673377 0.38822,-0.816607 0.38822,-2.409662 z"
             id="path83" />
          <path
             d="M 150.83417,61.804111 V 47.587105 h 2.15531 v 1.994665 q 0.66935,-1.044187 1.78048,-1.673376 1.11112,-0.642577 2.53014,-0.642577 1.57967,0 2.58369,0.655964 1.01742,0.655963 1.43241,1.83402 1.68677,-2.489984 4.39094,-2.489984 2.11515,0 3.25305,1.178057 1.13789,1.16467 1.13789,3.601106 v 9.759131 h -2.39627 v -8.95591 q 0,-1.445797 -0.24097,-2.074987 -0.22758,-0.642576 -0.84338,-1.0308 -0.6158,-0.388223 -1.4458,-0.388223 -1.49934,0 -2.48998,1.004026 -0.99064,0.990639 -0.99064,3.186108 v 8.259786 h -2.40966 v -9.237037 q 0,-1.606442 -0.58903,-2.409662 -0.58903,-0.803221 -1.92773,-0.803221 -1.01741,0 -1.88757,0.53548 -0.85677,0.535481 -1.24499,1.566281 -0.38822,1.0308 -0.38822,2.971916 v 7.376243 z"
             id="path85" />
          <path
             d="m 172.77549,54.695608 q 0,-3.949168 2.19547,-5.850124 1.83402,-1.579667 4.47126,-1.579667 2.93175,0 4.79255,1.92773 1.86079,1.914342 1.86079,5.301256 0,2.744338 -0.82999,4.324005 -0.81661,1.56628 -2.39628,2.436436 -1.56628,0.870156 -3.42707,0.870156 -2.98531,0 -4.83271,-1.914343 -1.83402,-1.914342 -1.83402,-5.515449 z m 2.47659,0 q 0,2.730951 1.19145,4.096426 1.19144,1.352088 2.99869,1.352088 1.79386,0 2.9853,-1.365475 1.19145,-1.365475 1.19145,-4.163361 0,-2.637241 -1.20484,-3.989329 -1.19144,-1.365475 -2.97191,-1.365475 -1.80725,0 -2.99869,1.352088 -1.19145,1.352088 -1.19145,4.083038 z"
             id="path87" />
          <path
             d="M 188.89345,61.804111 V 47.587105 h 2.16869 v 2.155309 q 0.83,-1.512732 1.52612,-1.994664 0.70952,-0.481933 1.5529,-0.481933 1.21822,0 2.47659,0.776447 l -0.82999,2.235631 q -0.88354,-0.522094 -1.76709,-0.522094 -0.78983,0 -1.41902,0.481933 -0.62919,0.468545 -0.89693,1.311927 -0.40161,1.285153 -0.40161,2.811272 v 7.443178 z"
             id="path89" />
          <path
             d="m 198.05017,67.252625 v -19.66552 h 2.19547 v 1.847408 q 0.77644,-1.084348 1.75369,-1.619828 0.97726,-0.548868 2.36951,-0.548868 1.82063,0 3.21288,0.937091 1.39225,0.937091 2.10176,2.650628 0.70951,1.700151 0.70951,3.734976 0,2.182083 -0.78983,3.935782 -0.77645,1.740311 -2.27579,2.677402 -1.48596,0.923704 -3.13257,0.923704 -1.20483,0 -2.16869,-0.508707 -0.95048,-0.508706 -1.56628,-1.285153 v 6.921085 z m 2.18208,-12.476694 q 0,2.744337 1.11112,4.056264 1.11112,1.311927 2.69079,1.311927 1.60644,0 2.74434,-1.352088 1.15128,-1.365475 1.15128,-4.216909 0,-2.717563 -1.12451,-4.069651 -1.11112,-1.352088 -2.66401,-1.352088 -1.53951,0 -2.73095,1.445797 -1.17806,1.43241 -1.17806,4.176748 z"
             id="path91" />
          <path
             d="M 213.29797,61.804111 V 42.178753 h 2.40966 v 7.041568 q 1.68676,-1.954504 4.25707,-1.954504 1.57967,0 2.74434,0.62919 1.16467,0.615802 1.65999,1.713537 0.5087,1.097735 0.5087,3.186109 v 9.009458 h -2.40966 v -9.009458 q 0,-1.807247 -0.78983,-2.623854 -0.77645,-0.829995 -2.20886,-0.829995 -1.07096,0 -2.02144,0.562254 -0.93709,0.548868 -1.3387,1.499346 -0.40161,0.950477 -0.40161,2.623854 v 7.777853 z"
             id="path93" />
          <path
             d="m 227.64884,54.695608 q 0,-3.949168 2.19547,-5.850124 1.83402,-1.579667 4.47126,-1.579667 2.93176,0 4.79255,1.92773 1.8608,1.914342 1.8608,5.301256 0,2.744338 -0.83,4.324005 -0.8166,1.56628 -2.39627,2.436436 -1.56628,0.870156 -3.42708,0.870156 -2.9853,0 -4.83271,-1.914343 -1.83402,-1.914342 -1.83402,-5.515449 z m 2.4766,0 q 0,2.730951 1.19144,4.096426 1.19145,1.352088 2.99869,1.352088 1.79386,0 2.98531,-1.365475 1.19144,-1.365475 1.19144,-4.163361 0,-2.637241 -1.20483,-3.989329 -1.19144,-1.365475 -2.97192,-1.365475 -1.80724,0 -2.99869,1.352088 -1.19144,1.352088 -1.19144,4.083038 z"
             id="path95" />
          <path
             d="m 242.82971,57.560429 2.38289,-0.374836 q 0.2008,1.43241 1.11112,2.195469 0.9237,0.76306 2.57031,0.76306 1.65999,0 2.46321,-0.66935 0.80322,-0.682738 0.80322,-1.593055 0,-0.816608 -0.70951,-1.285153 -0.49532,-0.321288 -2.46321,-0.816608 -2.65063,-0.66935 -3.68143,-1.151283 -1.01742,-0.495319 -1.5529,-1.352088 -0.52209,-0.870155 -0.52209,-1.914342 0,-0.950478 0.42838,-1.753699 0.44178,-0.816608 1.19145,-1.352088 0.56225,-0.414997 1.52612,-0.696125 0.97725,-0.294514 2.08837,-0.294514 1.67338,0 2.93176,0.481933 1.27176,0.481932 1.87418,1.311927 0.60241,0.816607 0.82999,2.19547 l -2.35611,0.321288 q -0.16064,-1.097735 -0.93709,-1.713538 -0.76306,-0.615802 -2.1687,-0.615802 -1.65999,0 -2.3695,0.548867 -0.70951,0.548868 -0.70951,1.285153 0,0.468546 0.29451,0.843382 0.29452,0.388223 0.92371,0.642577 0.36145,0.13387 2.12853,0.615802 2.55692,0.682738 3.56095,1.124509 1.01741,0.428384 1.59305,1.258379 0.57564,0.829995 0.57564,2.0616 0,1.204831 -0.70951,2.275792 -0.69612,1.057574 -2.02144,1.646602 -1.32531,0.575642 -2.99869,0.575642 -2.77111,0 -4.23029,-1.151283 -1.4458,-1.151283 -1.84741,-3.413688 z"
             id="path97" />
          <path
             d="m 257.51527,44.949864 v -2.771111 h 2.40967 v 2.771111 z m 0,16.854247 V 47.587105 h 2.40967 v 14.217006 z"
             id="path99" />
          <path
             d="m 262.6291,57.560429 2.38289,-0.374836 q 0.20081,1.43241 1.11112,2.195469 0.92371,0.76306 2.57031,0.76306 1.65999,0 2.46321,-0.66935 0.80322,-0.682738 0.80322,-1.593055 0,-0.816608 -0.70951,-1.285153 -0.49532,-0.321288 -2.46321,-0.816608 -2.65063,-0.66935 -3.68143,-1.151283 -1.01741,-0.495319 -1.55289,-1.352088 -0.5221,-0.870155 -0.5221,-1.914342 0,-0.950478 0.42839,-1.753699 0.44177,-0.816608 1.19144,-1.352088 0.56226,-0.414997 1.52612,-0.696125 0.97725,-0.294514 2.08837,-0.294514 1.67338,0 2.93176,0.481933 1.27177,0.481932 1.87418,1.311927 0.60242,0.816607 0.83,2.19547 l -2.35612,0.321288 q -0.16064,-1.097735 -0.93709,-1.713538 -0.76306,-0.615802 -2.16869,-0.615802 -1.65999,0 -2.36951,0.548867 -0.70951,0.548868 -0.70951,1.285153 0,0.468546 0.29452,0.843382 0.29451,0.388223 0.9237,0.642577 0.36145,0.13387 2.12854,0.615802 2.55691,0.682738 3.56094,1.124509 1.01741,0.428384 1.59306,1.258379 0.57564,0.829995 0.57564,2.0616 0,1.204831 -0.70952,2.275792 -0.69612,1.057574 -2.02143,1.646602 -1.32532,0.575642 -2.99869,0.575642 -2.77112,0 -4.2303,-1.151283 -1.4458,-1.151283 -1.84741,-3.413688 z"
             id="path101" />
        </g>
        <g
           id="g24518"
           transform="translate(-4.5739881)"
           style="filter:url(#filter33239)">
          <g
             id="g24089"
             transform="translate(-57.339858,0.26833255)">
            <path
               id="path23896"
               style="opacity:1;fill:#ffffff;stroke:#8a0000;stroke-width:1.74831;stroke-linecap:square;filter:url(#filter33235)"
               transform="matrix(0.77463305,0.63241097,-0.59635163,0.80272332,0,0)"
               d="m 220.83645,-86.849548 a 5.7218518,13.11701 0 0 1 -5.72186,13.11701 5.7218518,13.11701 0 0 1 -5.72185,-13.11701 5.7218518,13.11701 0 0 1 5.72185,-13.11701 5.7218518,13.11701 0 0 1 5.72186,13.11701 z" />
            <path
               id="path23898"
               style="opacity:1;fill:none;fill-opacity:0.0862745;stroke:#700000;stroke-width:1.60894;stroke-linecap:square"
               transform="matrix(0.72647002,-0.68719816,0.59243883,0.80561544,0,0)"
               d="m 143.02478,199.65607 a 5.6694169,12.988259 0 0 1 -5.66942,12.98826 5.6694169,12.988259 0 0 1 -5.66941,-12.98826 5.6694169,12.988259 0 0 1 5.66941,-12.98826 5.6694169,12.988259 0 0 1 5.66942,12.98826 z" />
          </g>
        </g>
      </g>
      <text
         xml:space="preserve"
         style="font-size:6.35px;line-height:1.25;font-family:Arial;-inkscape-font-specification:'Arial, Normal';font-variant-ligatures:none;stroke-width:0.374793"
         x="84.67585"
         y="42.398666"
         id="text31098"
         transform="scale(0.96041746,1.0412139)"><tspan
           sodipodi:role="line"
           id="tspan31096"
           style="stroke-width:0.374793"
           x="84.67585"
           y="42.398666" /></text>
    </g>
  </g>
  <metadata
     id="metadata9">
    <rdf:RDF>
      <cc:Work
         rdf:about="">
        <dc:title>Bildmarke</dc:title>
      </cc:Work>
    </rdf:RDF>
  </metadata>
</svg>
